<svg width="10em" height="4em" version="1.1" id="Ebene_1" xmlns="http://www.w3.org/2000/svg"
     viewBox="0 0 736 272.8" style="enable-background:new 0 0 736 272.8;" xml:space="preserve">
<style type="text/css">
	.st0{font-family:'ArialMT';}
	.st1{font-size:72px;}
</style>
    <path d="M387.7,0.8c-0.4,0.3-0.7,6.4-0.7,13.3c0,9.3-0.4,13-1.3,13.8s-6.9,1.3-14.8,1.4l-13.4,0.3v29l13.4,0.3
	c7.9,0.1,14,0.7,14.8,1.4s1.3,4.5,1.3,13.8c0,10.7,0.3,12.9,1.6,13.4c3.2,1.2,26.2,0.7,27.1-0.7c0.4-0.6,1-7.1,1.3-14.2l0.5-13
	l13.5-0.5l13.5-0.5v-29L433,29.4c-17.5-0.4-16,0.9-16-14.1c0-8.6-0.4-13.2-1.2-14C414.5,0,388.9-0.5,387.7,0.8z"/>
    <path d="M0,75c0,0.6,8.8,24.4,19.6,52.8s21.4,56.9,23.7,63l4.2,11.3h12.1l24.1-64l24-64H95.1l-1.9,5.2c-1.1,2.9-10.4,28.4-20.8,56.7
	c-13.8,37.8-19,50.9-19.6,49.5c-0.5-1.1-9.7-26.4-20.7-56.4L12.3,74.6l-6.2-0.3C2.4,74.1,0,74.4,0,75z"/>
    <path d="M199,138.1v64h12v-128h-12V138.1z"/>
    <path d="M330,98.6v11.5h-14v9h13.9l0.3,35.2c0.3,33.4,0.4,35.5,2.4,39.2c1.1,2.2,2.6,4.2,4.5,5.8c3.3,2.4,12.8,4.2,18.3,3.4l4.6-0.7
	v-8.9h-4c-5.2,0-10.3-2.1-12.4-5.1c-1.4-2.1-1.6-6.5-1.6-35.6v-33.3h18v-9h-18v-23h-12V98.6z"/>
    <path d="M134.3,109.2c-6.6,1.2-12.7,4.2-17.7,8.7c-4.1,3.9-8.6,12.2-8.6,15.9c0,2.1,0.5,2.3,5.4,2.3c5.1,0,5.5-0.2,6.5-3
	c3.6-10.6,14.9-16,28.8-13.8c11.7,1.8,17.3,8.9,17.3,21.5v7.1l-7.7,0.6c-32.8,2.6-37.4,3.5-44.5,8.9c-14.5,11.1-11.9,34.7,4.7,42.7
	c9.6,4.6,23.8,4.6,32.9-0.1c5.5-3,10.1-7.3,13.7-12.4l1.9-3v17.5h11v-34.4c0-37.9-0.4-41-6.2-48
	C164.3,110.6,148.9,106.3,134.3,109.2z M166,165.5c0,7.2-0.4,9.1-2.8,13.7c-5.8,11.2-21.3,17.4-33.7,13.5c-3.3-1-6.4-2.8-9-5.1
	c-8.1-8.1-4.7-21.3,6.8-26.1c3.5-1.5,18.3-3.2,36.5-4.3C165.9,157.1,166,157.4,166,165.5z"/>
    <path d="M258.4,109.4c-19,4.9-30.7,22.4-30.8,46.2c-0.2,27.6,12.6,44.6,35.9,47.7c20.1,2.7,38.8-7.7,43.5-24.1l0.9-3.1h-11.5
	l-2.1,4.4c-4.1,8.4-12.5,12.8-24.4,12.8c-12.4,0-21.2-5.1-26.4-15.2c-2-4-4.5-13.7-4.5-17.7c0-1,6.7-1.3,35-1.3h35v-5.8
	c-0.1-19.6-10.1-36.7-24.8-42.2C277.2,108.4,265.4,107.7,258.4,109.4z M279.7,120.6c8.6,3.6,16,14.5,16.6,24.2l0.2,4.8l-27.5,0.3
	c-15.1,0.1-28,0-28.6-0.2c-1.6-0.6,0.1-9.7,2.8-15C249.8,121.2,265.7,115,279.7,120.6L279.7,120.6z"/>
    <text transform="matrix(1 0 0 1 444.5 201.3801)" class="st0 st1">reforged</text>
</svg>
