<?xml version="1.0" standalone="no"?>
<!DOCTYPE svg PUBLIC "-//W3C//DTD SVG 20010904//EN"
 "http://www.w3.org/TR/2001/REC-SVG-20010904/DTD/svg10.dtd">
<svg version="1.0" xmlns="http://www.w3.org/2000/svg"
 width="447.000000pt" height="207.000000pt" viewBox="0 0 447.000000 207.000000"
 preserveAspectRatio="xMidYMid meet">
<metadata>
Created by potrace 1.15, written by Peter Selinger 2001-2017
</metadata>
<g transform="translate(0.000000,207.000000) scale(0.100000,-0.100000)"
fill="#000000" stroke="none">
<path d="M3877 2033 c-4 -3 -7 -64 -7 -133 0 -93 -4 -130 -13 -138 -8 -7 -69
-13 -148 -14 l-134 -3 0 -145 0 -145 134 -3 c79 -1 140 -7 148 -14 9 -8 13
-45 13 -138 0 -107 3 -129 16 -134 32 -12 262 -7 271 7 4 6 10 71 13 142 l5
130 135 5 135 5 0 145 0 145 -115 2 c-175 4 -160 -9 -160 141 0 86 -4 132 -12
140 -13 13 -269 18 -281 5z"/>
<path d="M0 1291 c0 -6 88 -244 196 -528 108 -285 214 -569 237 -630 l42 -113
61 0 60 0 241 640 240 640 -63 0 -63 0 -19 -52 c-11 -29 -104 -284 -208 -567
-138 -378 -190 -509 -196 -495 -5 11 -97 264 -207 564 l-198 545 -62 3 c-37 2
-61 -1 -61 -7z"/>
<path d="M1990 660 l0 -640 60 0 60 0 0 640 0 640 -60 0 -60 0 0 -640z"/>
<path d="M3300 1055 l0 -115 -70 0 -70 0 0 -45 0 -45 70 0 69 0 3 -352 c3
-334 4 -355 24 -392 11 -22 31 -48 45 -58 33 -24 128 -42 183 -34 l46 7 0 45
0 44 -40 0 c-52 0 -103 21 -124 51 -14 21 -16 65 -16 356 l0 333 90 0 90 0 0
45 0 45 -90 0 -90 0 0 115 0 115 -60 0 -60 0 0 -115z"/>
<path d="M1343 949 c-66 -12 -134 -46 -177 -87 -41 -39 -86 -122 -86 -159 0
-21 5 -23 54 -23 51 0 55 2 65 30 36 106 149 160 288 138 117 -18 173 -89 173
-215 l0 -71 -77 -6 c-328 -26 -374 -35 -445 -89 -145 -111 -119 -347 47 -427
96 -46 238 -46 329 1 48 24 110 81 137 124 l19 30 0 -87 0 -88 55 0 55 0 0
344 c0 379 -4 410 -62 480 -75 91 -229 134 -375 105z m317 -563 c0 -72 -4 -91
-28 -137 -58 -112 -213 -174 -337 -135 -34 10 -69 31 -90 51 -81 81 -47 213
68 261 35 15 183 32 365 43 21 1 22 -2 22 -83z"/>
<path d="M2584 947 c-190 -49 -307 -224 -308 -462 -2 -276 126 -446 359 -477
201 -27 388 77 435 241 l9 31 -58 0 -57 0 -21 -44 c-41 -84 -125 -128 -244
-128 -124 0 -212 51 -264 152 -20 40 -45 137 -45 177 0 10 67 13 350 13 l350
0 0 58 c-1 196 -101 367 -248 422 -70 27 -188 34 -258 17z m213 -112 c86 -36
160 -145 166 -242 l2 -48 -275 -3 c-151 -1 -280 0 -286 2 -16 6 1 97 28 150
67 136 228 197 365 141z"/>
</g>
</svg>
