<?xml version="1.0" standalone="no"?>
<!DOCTYPE svg PUBLIC "-//W3C//DTD SVG 20010904//EN"
 "http://www.w3.org/TR/2001/REC-SVG-20010904/DTD/svg10.dtd">
<svg version="1.0" xmlns="http://www.w3.org/2000/svg"
 width="50.000000pt" height="50.000000pt" viewBox="0 0 50.000000 50.000000"
 preserveAspectRatio="xMidYMid meet">

<g transform="translate(0.000000,50.000000) scale(0.100000,-0.100000)"
fill="#000000" stroke="none">
<path d="M180 475 c-25 -14 -69 -32 -99 -41 l-54 -16 7 -66 c14 -132 77 -251
167 -318 l49 -36 28 21 c47 33 109 106 136 160 28 55 56 157 56 208 0 29 -4
33 -42 44 -23 6 -68 24 -100 40 -69 35 -89 35 -148 4z m155 -30 c44 -19 88
-35 98 -35 12 0 17 -8 17 -27 0 -50 -30 -155 -58 -206 -33 -61 -117 -147 -144
-147 -30 0 -116 94 -148 163 -28 60 -50 144 -50 193 0 16 6 24 18 24 9 0 51
16 92 34 41 19 80 34 85 35 6 1 46 -15 90 -34z"/>
<path d="M177 319 c-23 -13 -22 -32 3 -54 11 -10 20 -22 20 -27 0 -4 -9 -8
-20 -8 -11 0 -20 -5 -20 -11 0 -6 10 -9 23 -7 27 4 38 55 13 64 -21 8 -20 32
2 36 9 2 13 6 7 10 -6 3 -18 2 -28 -3z"/>
<path d="M230 296 c0 -13 7 -29 15 -36 8 -7 15 -16 15 -21 0 -5 -7 -9 -15 -9
-8 0 -15 -5 -15 -11 0 -16 31 -7 44 13 8 13 5 22 -13 42 -22 23 -22 25 -4 35
17 10 16 10 -4 11 -18 0 -23 -6 -23 -24z"/>
<path d="M290 265 c0 -52 1 -55 25 -55 14 0 25 5 25 10 0 6 -7 10 -15 10 -11
0 -15 12 -15 45 0 25 -4 45 -10 45 -5 0 -10 -25 -10 -55z"/>
</g>
</svg>
